<mxfile host="Electron" modified="2024-12-30T07:35:31.223Z" agent="Mozilla/5.0 (Macintosh; Intel Mac OS X 10_15_7) AppleWebKit/537.36 (KHTML, like Gecko) draw.io/21.7.5 Chrome/114.0.5735.289 Electron/25.8.1 Safari/537.36" etag="zTLcCLYd9VwWaV6f2dSz" version="21.7.5" type="device" pages="2">
  <diagram name="Docker networking" id="T33guz1PUkG6V0Dr67i1">
    <mxGraphModel dx="954" dy="727" grid="1" gridSize="10" guides="1" tooltips="1" connect="1" arrows="1" fold="1" page="1" pageScale="1" pageWidth="850" pageHeight="1100" math="0" shadow="0">
      <root>
        <mxCell id="0" />
        <mxCell id="1" parent="0" />
        <mxCell id="05r1xtlnQkXX14NymncC-1" value="" style="rounded=0;whiteSpace=wrap;html=1;" parent="1" vertex="1">
          <mxGeometry x="120" y="40" width="500" height="330" as="geometry" />
        </mxCell>
        <mxCell id="05r1xtlnQkXX14NymncC-6" value="bridge/docker0" style="rounded=1;whiteSpace=wrap;html=1;fillColor=#dae8fc;strokeColor=#6c8ebf;align=left;verticalAlign=top;" parent="1" vertex="1">
          <mxGeometry x="180" y="91" width="380" height="110" as="geometry" />
        </mxCell>
        <mxCell id="05r1xtlnQkXX14NymncC-2" value="" style="image;sketch=0;aspect=fixed;html=1;points=[];align=center;fontSize=12;image=img/lib/mscae/Docker.svg;" parent="1" vertex="1">
          <mxGeometry x="140" y="50" width="50" height="41" as="geometry" />
        </mxCell>
        <mxCell id="05r1xtlnQkXX14NymncC-4" value="nginx" style="sketch=0;outlineConnect=0;fontColor=#232F3E;gradientColor=none;strokeColor=#232F3E;fillColor=#ffffff;dashed=0;verticalLabelPosition=bottom;verticalAlign=top;align=center;html=1;fontSize=12;fontStyle=0;aspect=fixed;shape=mxgraph.aws4.resourceIcon;resIcon=mxgraph.aws4.container_1;" parent="1" vertex="1">
          <mxGeometry x="360" y="110" width="60" height="60" as="geometry" />
        </mxCell>
        <mxCell id="05r1xtlnQkXX14NymncC-8" value="8080:80" style="edgeStyle=orthogonalEdgeStyle;rounded=0;orthogonalLoop=1;jettySize=auto;html=1;" parent="1" source="05r1xtlnQkXX14NymncC-5" target="05r1xtlnQkXX14NymncC-7" edge="1">
          <mxGeometry x="0.6338" y="22" relative="1" as="geometry">
            <Array as="points">
              <mxPoint x="580" y="140" />
              <mxPoint x="580" y="185" />
            </Array>
            <mxPoint x="-12" y="-20" as="offset" />
          </mxGeometry>
        </mxCell>
        <mxCell id="05r1xtlnQkXX14NymncC-5" value=":80" style="sketch=0;outlineConnect=0;fontColor=#232F3E;gradientColor=none;fillColor=#8C4FFF;strokeColor=none;dashed=0;verticalLabelPosition=bottom;verticalAlign=top;align=center;html=1;fontSize=12;fontStyle=0;aspect=fixed;pointerEvents=1;shape=mxgraph.aws4.internet_gateway;" parent="1" vertex="1">
          <mxGeometry x="420" y="125" width="30" height="30" as="geometry" />
        </mxCell>
        <mxCell id="05r1xtlnQkXX14NymncC-18" value="host_ip:8080" style="edgeStyle=orthogonalEdgeStyle;rounded=0;orthogonalLoop=1;jettySize=auto;html=1;" parent="1" source="05r1xtlnQkXX14NymncC-7" edge="1">
          <mxGeometry x="1" y="32" relative="1" as="geometry">
            <mxPoint x="730" y="150" as="targetPoint" />
            <mxPoint x="10" y="2" as="offset" />
          </mxGeometry>
        </mxCell>
        <mxCell id="05r1xtlnQkXX14NymncC-19" value="host_ip:8081" style="edgeStyle=orthogonalEdgeStyle;rounded=0;orthogonalLoop=1;jettySize=auto;html=1;" parent="1" source="05r1xtlnQkXX14NymncC-7" edge="1">
          <mxGeometry x="1" y="-22" relative="1" as="geometry">
            <mxPoint x="730" y="210" as="targetPoint" />
            <mxPoint x="9" y="-2" as="offset" />
          </mxGeometry>
        </mxCell>
        <mxCell id="05r1xtlnQkXX14NymncC-7" value="host&lt;br&gt;NAT" style="sketch=0;outlineConnect=0;fontColor=#232F3E;gradientColor=none;fillColor=#8C4FFF;strokeColor=none;dashed=0;verticalLabelPosition=bottom;verticalAlign=top;align=center;html=1;fontSize=12;fontStyle=0;aspect=fixed;pointerEvents=1;shape=mxgraph.aws4.nat_gateway;" parent="1" vertex="1">
          <mxGeometry x="600" y="146" width="78" height="78" as="geometry" />
        </mxCell>
        <mxCell id="05r1xtlnQkXX14NymncC-9" value="bridge/my_app_net" style="rounded=1;whiteSpace=wrap;html=1;fillColor=#dae8fc;strokeColor=#6c8ebf;verticalAlign=top;align=left;" parent="1" vertex="1">
          <mxGeometry x="180" y="220" width="380" height="130" as="geometry" />
        </mxCell>
        <mxCell id="05r1xtlnQkXX14NymncC-17" style="edgeStyle=orthogonalEdgeStyle;rounded=0;orthogonalLoop=1;jettySize=auto;html=1;" parent="1" source="05r1xtlnQkXX14NymncC-10" target="05r1xtlnQkXX14NymncC-16" edge="1">
          <mxGeometry relative="1" as="geometry" />
        </mxCell>
        <mxCell id="05r1xtlnQkXX14NymncC-10" value="httpd" style="sketch=0;outlineConnect=0;fontColor=#232F3E;gradientColor=none;strokeColor=#232F3E;fillColor=#ffffff;dashed=0;verticalLabelPosition=bottom;verticalAlign=top;align=center;html=1;fontSize=12;fontStyle=0;aspect=fixed;shape=mxgraph.aws4.resourceIcon;resIcon=mxgraph.aws4.container_1;" parent="1" vertex="1">
          <mxGeometry x="410" y="239" width="60" height="60" as="geometry" />
        </mxCell>
        <mxCell id="05r1xtlnQkXX14NymncC-14" value="8081:80" style="edgeStyle=orthogonalEdgeStyle;rounded=0;orthogonalLoop=1;jettySize=auto;html=1;entryX=0;entryY=0.756;entryDx=0;entryDy=0;entryPerimeter=0;" parent="1" source="05r1xtlnQkXX14NymncC-11" target="05r1xtlnQkXX14NymncC-7" edge="1">
          <mxGeometry x="-0.0244" y="-23" relative="1" as="geometry">
            <Array as="points">
              <mxPoint x="580" y="269" />
              <mxPoint x="580" y="205" />
            </Array>
            <mxPoint x="-13" y="21" as="offset" />
          </mxGeometry>
        </mxCell>
        <mxCell id="05r1xtlnQkXX14NymncC-11" value=":80" style="sketch=0;outlineConnect=0;fontColor=#232F3E;gradientColor=none;fillColor=#8C4FFF;strokeColor=none;dashed=0;verticalLabelPosition=bottom;verticalAlign=top;align=center;html=1;fontSize=12;fontStyle=0;aspect=fixed;pointerEvents=1;shape=mxgraph.aws4.internet_gateway;" parent="1" vertex="1">
          <mxGeometry x="470" y="254" width="30" height="30" as="geometry" />
        </mxCell>
        <mxCell id="05r1xtlnQkXX14NymncC-15" value="mysql" style="sketch=0;outlineConnect=0;fontColor=#232F3E;gradientColor=none;strokeColor=#232F3E;fillColor=#ffffff;dashed=0;verticalLabelPosition=bottom;verticalAlign=top;align=center;html=1;fontSize=12;fontStyle=0;aspect=fixed;shape=mxgraph.aws4.resourceIcon;resIcon=mxgraph.aws4.container_1;" parent="1" vertex="1">
          <mxGeometry x="260" y="270" width="60" height="60" as="geometry" />
        </mxCell>
        <mxCell id="05r1xtlnQkXX14NymncC-16" value="3306" style="sketch=0;outlineConnect=0;fontColor=#232F3E;gradientColor=none;fillColor=#8C4FFF;strokeColor=none;dashed=0;verticalLabelPosition=bottom;verticalAlign=top;align=center;html=1;fontSize=12;fontStyle=0;aspect=fixed;pointerEvents=1;shape=mxgraph.aws4.internet_gateway;" parent="1" vertex="1">
          <mxGeometry x="320" y="285" width="30" height="30" as="geometry" />
        </mxCell>
      </root>
    </mxGraphModel>
  </diagram>
  <diagram id="ykUC_3XhzrNX5LMKIz4i" name="Docker Swarm">
    <mxGraphModel dx="954" dy="727" grid="1" gridSize="10" guides="1" tooltips="1" connect="1" arrows="1" fold="1" page="1" pageScale="1" pageWidth="850" pageHeight="1100" math="0" shadow="0">
      <root>
        <mxCell id="0" />
        <mxCell id="1" parent="0" />
        <mxCell id="Iibk4xpHb8Jq7P1qYDmv-14" value="backend&lt;br&gt;network" style="rounded=0;whiteSpace=wrap;html=1;fillColor=#bac8d3;strokeColor=#23445d;align=right;verticalAlign=bottom;" vertex="1" parent="1">
          <mxGeometry x="320" y="10" width="200" height="350" as="geometry" />
        </mxCell>
        <mxCell id="Iibk4xpHb8Jq7P1qYDmv-13" value="frontend&lt;br&gt;network" style="rounded=0;whiteSpace=wrap;html=1;fillColor=#dae8fc;strokeColor=#6c8ebf;align=left;verticalAlign=bottom;" vertex="1" parent="1">
          <mxGeometry x="40" y="10" width="200" height="350" as="geometry" />
        </mxCell>
        <mxCell id="Iibk4xpHb8Jq7P1qYDmv-3" style="edgeStyle=orthogonalEdgeStyle;rounded=0;orthogonalLoop=1;jettySize=auto;html=1;entryX=0.5;entryY=0;entryDx=0;entryDy=0;" edge="1" parent="1" source="Iibk4xpHb8Jq7P1qYDmv-1" target="Iibk4xpHb8Jq7P1qYDmv-2">
          <mxGeometry relative="1" as="geometry" />
        </mxCell>
        <mxCell id="Iibk4xpHb8Jq7P1qYDmv-1" value="&lt;b&gt;voting-app&lt;/b&gt;&lt;br&gt;(Python)" style="rounded=1;whiteSpace=wrap;html=1;" vertex="1" parent="1">
          <mxGeometry x="80" y="40" width="120" height="60" as="geometry" />
        </mxCell>
        <mxCell id="Iibk4xpHb8Jq7P1qYDmv-6" style="edgeStyle=orthogonalEdgeStyle;rounded=0;orthogonalLoop=1;jettySize=auto;html=1;entryX=0;entryY=0.5;entryDx=0;entryDy=0;" edge="1" parent="1" source="Iibk4xpHb8Jq7P1qYDmv-2" target="Iibk4xpHb8Jq7P1qYDmv-4">
          <mxGeometry relative="1" as="geometry">
            <Array as="points">
              <mxPoint x="140" y="310" />
            </Array>
          </mxGeometry>
        </mxCell>
        <mxCell id="Iibk4xpHb8Jq7P1qYDmv-2" value="&lt;b&gt;redis&lt;/b&gt;&lt;br&gt;(Redis)" style="rounded=1;whiteSpace=wrap;html=1;" vertex="1" parent="1">
          <mxGeometry x="80" y="160" width="120" height="60" as="geometry" />
        </mxCell>
        <mxCell id="Iibk4xpHb8Jq7P1qYDmv-9" style="edgeStyle=orthogonalEdgeStyle;rounded=0;orthogonalLoop=1;jettySize=auto;html=1;entryX=0.5;entryY=1;entryDx=0;entryDy=0;" edge="1" parent="1" source="Iibk4xpHb8Jq7P1qYDmv-4" target="Iibk4xpHb8Jq7P1qYDmv-7">
          <mxGeometry relative="1" as="geometry" />
        </mxCell>
        <mxCell id="Iibk4xpHb8Jq7P1qYDmv-4" value="&lt;b&gt;worker&lt;/b&gt;&lt;br&gt;(.Net)" style="rounded=1;whiteSpace=wrap;html=1;" vertex="1" parent="1">
          <mxGeometry x="220" y="280" width="120" height="60" as="geometry" />
        </mxCell>
        <mxCell id="Iibk4xpHb8Jq7P1qYDmv-10" style="edgeStyle=orthogonalEdgeStyle;rounded=0;orthogonalLoop=1;jettySize=auto;html=1;entryX=0.5;entryY=1;entryDx=0;entryDy=0;" edge="1" parent="1" source="Iibk4xpHb8Jq7P1qYDmv-7" target="Iibk4xpHb8Jq7P1qYDmv-8">
          <mxGeometry relative="1" as="geometry" />
        </mxCell>
        <mxCell id="Iibk4xpHb8Jq7P1qYDmv-7" value="&lt;b&gt;db&lt;/b&gt;&lt;br&gt;(Postgres)" style="rounded=1;whiteSpace=wrap;html=1;" vertex="1" parent="1">
          <mxGeometry x="360" y="160" width="120" height="60" as="geometry" />
        </mxCell>
        <mxCell id="Iibk4xpHb8Jq7P1qYDmv-8" value="&lt;b&gt;result-app&lt;/b&gt;&lt;br&gt;(Node.js)" style="rounded=1;whiteSpace=wrap;html=1;" vertex="1" parent="1">
          <mxGeometry x="360" y="40" width="120" height="60" as="geometry" />
        </mxCell>
      </root>
    </mxGraphModel>
  </diagram>
</mxfile>
